<svg xmlns="http://www.w3.org/2000/svg" viewBox="0 0 512 512" fill="none">
  <!-- Minimal Dark Rounded Squircle Base -->
  <rect width="512" height="512" rx="112" fill="#09090b"/>
  <rect x="2" y="2" width="508" height="508" rx="110" stroke="#27272a" stroke-width="4" fill="none"/>
  
  <!-- Architectural Typographic 'Tg' Monogram (pure vector paths for 100% device independence) -->
  <g fill="#ffffff">
    <!-- Capital T with balanced typographic proportions -->
    <path d="M96 144 h188 v44 h-22 v-14 h-48 v180 h36 v28 h-118 v-28 h36 v-180 h-48 v14 h-24 z"/>
    
    <!-- Modern Geometric 'g' with ear and loop, nested with the T stem -->
    <!-- Eyed circle of g -->
    <path fill-rule="evenodd" clip-rule="evenodd" d="M336 216 c-42 0 -72 30 -72 72 c0 44 30 74 72 74 c22 0 40 -8 52 -22 v18 c0 32 -16 48 -46 48 c-18 0 -34 -8 -40 -20 l-30 18 c14 26 40 38 72 38 c54 0 82 -30 82 -82 v-160 h-38 v16 c-12 -14 -30 -22 -52 -22 z m38 72 c0 26 -16 42 -38 42 c-22 0 -38 -16 -38 -42 c0 -24 16 -40 38 -40 c22 0 38 16 38 40 z"/>
  </g>
</svg>
